<?xml version="1.0" encoding="UTF-8"?>
<svg version="1.1" xmlns="http://www.w3.org/2000/svg" width="360" height="360">
<path d="M0 0 C118.8 0 237.6 0 360 0 C360 118.8 360 237.6 360 360 C241.2 360 122.4 360 0 360 C0 241.2 0 122.4 0 0 Z " fill="#FEFEFE" transform="translate(0,0)"/>
<path d="M0 0 C9.58409184 6.92503243 14.68410605 13.69057664 16.95703125 25.4140625 C17.30051939 29.7477052 17.3579484 34.05637973 17.3371563 38.40267563 C17.32788114 40.52453722 17.33845213 42.64554538 17.35377502 44.7673645 C17.39342554 50.79135136 17.39508806 56.81525952 17.39282227 62.83935547 C17.39277064 66.54809115 17.41218872 70.25636202 17.44215584 73.96496964 C17.45279916 76.03051511 17.44096418 78.09510197 17.42832947 80.16061401 C17.51622953 91.41473301 18.92316983 102.15280578 26.8828125 110.6328125 C27.95703125 112.4140625 27.95703125 112.4140625 27.96875 114.796875 C26.59907254 118.34005607 24.26927116 120.36944746 21.45703125 122.7890625 C20.64770142 123.50316284 20.64770142 123.50316284 19.82202148 124.23168945 C18.21230313 125.6404014 16.58709768 127.02898891 14.95703125 128.4140625 C14.09207031 129.16300781 13.22710937 129.91195312 12.3359375 130.68359375 C6.7439333 135.31373551 6.7439333 135.31373551 3.4140625 135.73828125 C-0.87814069 135.1719015 -3.18526475 132.50739115 -6.04296875 129.4140625 C-8.51946572 126.1699963 -10.81861818 122.83510015 -13.04296875 119.4140625 C-13.50445312 119.76597656 -13.9659375 120.11789063 -14.44140625 120.48046875 C-16.63201446 122.13857734 -18.83694248 123.77652599 -21.04296875 125.4140625 C-22.25146484 126.33058594 -22.25146484 126.33058594 -23.484375 127.265625 C-28.78442863 131.16394301 -33.63056657 133.86747199 -40.04296875 135.4140625 C-40.76871094 135.59453125 -41.49445313 135.775 -42.2421875 135.9609375 C-55.30871214 138.07490801 -68.06318546 137.13793099 -79.40234375 129.91015625 C-86.82636308 124.11886297 -90.96144987 115.4434823 -93.04296875 106.4140625 C-93.32989884 103.44957803 -93.376809 100.51602732 -93.35546875 97.5390625 C-93.3512793 96.74258301 -93.34708984 95.94610352 -93.34277344 95.12548828 C-93.23270856 89.41031087 -92.56131775 84.60207761 -90.04296875 79.4140625 C-89.75292969 78.7334375 -89.46289062 78.0528125 -89.1640625 77.3515625 C-85.19172136 68.57584652 -79.25457216 63.24441745 -71.04296875 58.4140625 C-70.3159375 57.970625 -69.58890625 57.5271875 -68.83984375 57.0703125 C-54.09092698 48.84302559 -34.6778098 47.18952021 -18.04296875 47.4140625 C-18.29951825 44.70369248 -18.57267924 41.99671635 -18.85546875 39.2890625 C-18.96084961 38.14824219 -18.96084961 38.14824219 -19.06835938 36.984375 C-19.66999427 31.40120321 -20.71273537 26.59395824 -24.98046875 22.6015625 C-30.61712547 19.35621469 -38.19807306 19.39781903 -44.36328125 21.02734375 C-49.90981592 23.42100035 -52.38185656 27.14242961 -55.04296875 32.4140625 C-55.90921875 34.115625 -55.90921875 34.115625 -56.79296875 35.8515625 C-57.41171875 37.12 -57.41171875 37.12 -58.04296875 38.4140625 C-59.04296875 39.4140625 -59.04296875 39.4140625 -61.9296875 39.5625 C-66.95356225 39.48807223 -71.88938629 38.7519301 -76.85546875 38.0390625 C-77.80873047 37.91273437 -78.76199219 37.78640625 -79.74414062 37.65625 C-80.65357422 37.52734375 -81.56300781 37.3984375 -82.5 37.265625 C-83.3247583 37.15041504 -84.1495166 37.03520508 -84.99926758 36.91650391 C-87.04296875 36.4140625 -87.04296875 36.4140625 -89.04296875 34.4140625 C-89.04296875 23.58799945 -83.66381119 14.15119323 -76.29296875 6.4453125 C-57.26265541 -10.73483149 -21.95796743 -13.68699309 0 0 Z " fill="#010101" transform="translate(215.04296875,89.5859375)"/>
<path d="M0 0 C4.90751384 0.40355474 8.21940809 2.04229096 12.4375 4.5 C64.05176269 33.1433671 127.95679223 36.79244003 184 21 C188.72766701 19.57913516 193.40678681 18.03499021 198.0625 16.39453125 C199.01382813 16.06122803 199.01382813 16.06122803 199.984375 15.72119141 C201.45927307 15.19347231 202.92716682 14.64606316 204.390625 14.08740234 C205.18984375 13.79430176 205.9890625 13.50120117 206.8125 13.19921875 C207.54082031 12.92295654 208.26914062 12.64669434 209.01953125 12.36206055 C211 12 211 12 214 14 C213.61698636 16.45253875 213.26801347 17.73111819 211.49291992 19.51196289 C177.36542349 43.98274943 131.34620986 52.96418772 90.10986328 46.35498047 C89.06548096 46.17926514 89.06548096 46.17926514 88 46 C87.25862793 45.87641113 86.51725586 45.75282227 85.75341797 45.62548828 C67.08105283 42.3830759 49.57137073 36.17503692 33 27 C32.05133057 26.47817139 32.05133057 26.47817139 31.08349609 25.94580078 C23.80378089 21.89120539 16.95780819 17.42538614 10.375 12.3125 C9.80700684 11.87317139 9.23901367 11.43384277 8.65380859 10.98120117 C4.91655317 7.9888225 1.96274299 4.76125178 -1 1 C-0.67 0.67 -0.34 0.34 0 0 Z " fill="#F9A11C" transform="translate(58,248)"/>
<path d="M0 0 C1 1 1 1 1.1328125 3.1171875 C1.09410773 16.77996983 0.74979103 28.94636371 -9.1484375 39.37109375 C-13.51091187 43.20896677 -18.31256856 44.61615462 -24.015625 44.33984375 C-28.38253605 43.59196725 -31.5541095 41.81269458 -34.32421875 38.33984375 C-38.32631728 31.50117013 -37.95090186 23.73483261 -36 16.25 C-33.63498084 10.129418 -29.15107674 6.52681038 -23.34765625 3.71484375 C-15.73808114 0.73718393 -8.15978596 -0.4079893 0 0 Z " fill="#FBFBFA" transform="translate(196,157)"/>
<path d="M0 0 C1.00365601 -0.0141394 1.00365601 -0.0141394 2.02758789 -0.02856445 C6.21244221 -0.00121921 12.68444083 0.05944083 15.875 3.25 C17.2680156 17.02095426 13.32128718 28.42381974 4.875 39.25 C2.6875 41.8125 2.6875 41.8125 0.875 43.25 C-0.115 43.25 -1.105 43.25 -2.125 43.25 C-1.51734399 38.69257994 -0.2898525 34.77828374 1.375 30.5 C3.46805189 24.78947692 5.05225849 19.37807935 4.875 13.25 C4.545 12.59 4.215 11.93 3.875 11.25 C0.00625846 9.96041949 -3.65737194 10.10207829 -7.6875 10.125 C-8.49364746 10.12693359 -9.29979492 10.12886719 -10.13037109 10.13085938 C-15.85243295 10.1722819 -21.44538552 10.51714652 -27.125 11.25 C-26.76754977 8.62497486 -26.47150292 7.52998674 -24.375 5.8359375 C-16.16351294 1.41656078 -9.31959148 0.09929225 0 0 Z " fill="#F9A11D" transform="translate(276.125,242.75)"/>
<path d="M0 0 C4.95 0 9.9 0 15 0 C15 4.95 15 9.9 15 15 C10.05 15 5.1 15 0 15 C0 10.05 0 5.1 0 0 Z " fill="#EFEEEE" transform="translate(330,345)"/>
<path d="M0 0 C4.95 0 9.9 0 15 0 C15 4.95 15 9.9 15 15 C10.05 15 5.1 15 0 15 C0 10.05 0 5.1 0 0 Z " fill="#EFEEEE" transform="translate(300,345)"/>
<path d="M0 0 C4.95 0 9.9 0 15 0 C15 4.95 15 9.9 15 15 C10.05 15 5.1 15 0 15 C0 10.05 0 5.1 0 0 Z " fill="#EFEEEE" transform="translate(270,345)"/>
<path d="M0 0 C4.95 0 9.9 0 15 0 C15 4.95 15 9.9 15 15 C10.05 15 5.1 15 0 15 C0 10.05 0 5.1 0 0 Z " fill="#EFEEEE" transform="translate(90,345)"/>
<path d="M0 0 C4.95 0 9.9 0 15 0 C15 4.95 15 9.9 15 15 C10.05 15 5.1 15 0 15 C0 10.05 0 5.1 0 0 Z " fill="#EFEEEE" transform="translate(60,345)"/>
<path d="M0 0 C4.95 0 9.9 0 15 0 C15 4.95 15 9.9 15 15 C10.05 15 5.1 15 0 15 C0 10.05 0 5.1 0 0 Z " fill="#EFEEEE" transform="translate(30,345)"/>
<path d="M0 0 C4.95 0 9.9 0 15 0 C15 4.95 15 9.9 15 15 C10.05 15 5.1 15 0 15 C0 10.05 0 5.1 0 0 Z " fill="#EFEEEE" transform="translate(0,345)"/>
<path d="M0 0 C4.95 0 9.9 0 15 0 C15 4.95 15 9.9 15 15 C10.05 15 5.1 15 0 15 C0 10.05 0 5.1 0 0 Z " fill="#EFEEEE" transform="translate(345,330)"/>
<path d="M0 0 C4.95 0 9.9 0 15 0 C15 4.95 15 9.9 15 15 C10.05 15 5.1 15 0 15 C0 10.05 0 5.1 0 0 Z " fill="#EFEEEE" transform="translate(315,330)"/>
<path d="M0 0 C4.95 0 9.9 0 15 0 C15 4.95 15 9.9 15 15 C10.05 15 5.1 15 0 15 C0 10.05 0 5.1 0 0 Z " fill="#EFEEEE" transform="translate(285,330)"/>
<path d="M0 0 C4.95 0 9.9 0 15 0 C15 4.95 15 9.9 15 15 C10.05 15 5.1 15 0 15 C0 10.05 0 5.1 0 0 Z " fill="#EFEEEE" transform="translate(45,330)"/>
<path d="M0 0 C4.95 0 9.9 0 15 0 C15 4.95 15 9.9 15 15 C10.05 15 5.1 15 0 15 C0 10.05 0 5.1 0 0 Z " fill="#EFEEEE" transform="translate(15,330)"/>
<path d="M0 0 C4.95 0 9.9 0 15 0 C15 4.95 15 9.9 15 15 C10.05 15 5.1 15 0 15 C0 10.05 0 5.1 0 0 Z " fill="#EFEEEE" transform="translate(330,315)"/>
<path d="M0 0 C4.95 0 9.9 0 15 0 C15 4.95 15 9.9 15 15 C10.05 15 5.1 15 0 15 C0 10.05 0 5.1 0 0 Z " fill="#EFEEEE" transform="translate(300,315)"/>
<path d="M0 0 C4.95 0 9.9 0 15 0 C15 4.95 15 9.9 15 15 C10.05 15 5.1 15 0 15 C0 10.05 0 5.1 0 0 Z " fill="#EFEEEE" transform="translate(30,315)"/>
<path d="M0 0 C4.95 0 9.9 0 15 0 C15 4.95 15 9.9 15 15 C10.05 15 5.1 15 0 15 C0 10.05 0 5.1 0 0 Z " fill="#EFEEEE" transform="translate(0,315)"/>
<path d="M0 0 C4.95 0 9.9 0 15 0 C15 4.95 15 9.9 15 15 C10.05 15 5.1 15 0 15 C0 10.05 0 5.1 0 0 Z " fill="#EFEEEE" transform="translate(345,300)"/>
<path d="M0 0 C4.95 0 9.9 0 15 0 C15 4.95 15 9.9 15 15 C10.05 15 5.1 15 0 15 C0 10.05 0 5.1 0 0 Z " fill="#EFEEEE" transform="translate(315,300)"/>
<path d="M0 0 C4.95 0 9.9 0 15 0 C15 4.95 15 9.9 15 15 C10.05 15 5.1 15 0 15 C0 10.05 0 5.1 0 0 Z " fill="#EFEEEE" transform="translate(15,300)"/>
<path d="M0 0 C4.95 0 9.9 0 15 0 C15 4.95 15 9.9 15 15 C10.05 15 5.1 15 0 15 C0 10.05 0 5.1 0 0 Z " fill="#EFEEEE" transform="translate(330,285)"/>
<path d="M0 0 C4.95 0 9.9 0 15 0 C15 4.95 15 9.9 15 15 C10.05 15 5.1 15 0 15 C0 10.05 0 5.1 0 0 Z " fill="#EFEEEE" transform="translate(0,285)"/>
<path d="M0 0 C4.95 0 9.9 0 15 0 C15 4.95 15 9.9 15 15 C10.05 15 5.1 15 0 15 C0 10.05 0 5.1 0 0 Z " fill="#EFEEEE" transform="translate(345,270)"/>
<path d="M0 0 C4.95 0 9.9 0 15 0 C15 4.95 15 9.9 15 15 C10.05 15 5.1 15 0 15 C0 10.05 0 5.1 0 0 Z " fill="#EFEEEE" transform="translate(0,255)"/>
<path d="M0 0 C4.95 0 9.9 0 15 0 C15 4.95 15 9.9 15 15 C10.05 15 5.1 15 0 15 C0 10.05 0 5.1 0 0 Z " fill="#EFEEEE" transform="translate(345,90)"/>
<path d="M0 0 C4.95 0 9.9 0 15 0 C15 4.95 15 9.9 15 15 C10.05 15 5.1 15 0 15 C0 10.05 0 5.1 0 0 Z " fill="#EFEEEE" transform="translate(0,75)"/>
<path d="M0 0 C4.95 0 9.9 0 15 0 C15 4.95 15 9.9 15 15 C10.05 15 5.1 15 0 15 C0 10.05 0 5.1 0 0 Z " fill="#EFEEEE" transform="translate(345,60)"/>
<path d="M0 0 C4.95 0 9.9 0 15 0 C15 4.95 15 9.9 15 15 C10.05 15 5.1 15 0 15 C0 10.05 0 5.1 0 0 Z " fill="#EFEEEE" transform="translate(15,60)"/>
<path d="M0 0 C4.95 0 9.9 0 15 0 C15 4.95 15 9.9 15 15 C10.05 15 5.1 15 0 15 C0 10.05 0 5.1 0 0 Z " fill="#FFFFFF" transform="translate(0,60)"/>
<path d="M0 0 C4.95 0 9.9 0 15 0 C15 4.95 15 9.9 15 15 C10.05 15 5.1 15 0 15 C0 10.05 0 5.1 0 0 Z " fill="#EFEEEE" transform="translate(330,45)"/>
<path d="M0 0 C4.95 0 9.9 0 15 0 C15 4.95 15 9.9 15 15 C10.05 15 5.1 15 0 15 C0 10.05 0 5.1 0 0 Z " fill="#EFEEEE" transform="translate(30,45)"/>
<path d="M0 0 C4.95 0 9.9 0 15 0 C15 4.95 15 9.9 15 15 C10.05 15 5.1 15 0 15 C0 10.05 0 5.1 0 0 Z " fill="#FFFFFF" transform="translate(15,45)"/>
<path d="M0 0 C4.95 0 9.9 0 15 0 C15 4.95 15 9.9 15 15 C10.05 15 5.1 15 0 15 C0 10.05 0 5.1 0 0 Z " fill="#EFEEEE" transform="translate(0,45)"/>
<path d="M0 0 C4.95 0 9.9 0 15 0 C15 4.95 15 9.9 15 15 C10.05 15 5.1 15 0 15 C0 10.05 0 5.1 0 0 Z " fill="#EFEEEE" transform="translate(345,30)"/>
<path d="M0 0 C4.95 0 9.9 0 15 0 C15 4.95 15 9.9 15 15 C10.05 15 5.1 15 0 15 C0 10.05 0 5.1 0 0 Z " fill="#EFEEEE" transform="translate(315,30)"/>
<path d="M0 0 C4.95 0 9.9 0 15 0 C15 4.95 15 9.9 15 15 C10.05 15 5.1 15 0 15 C0 10.05 0 5.1 0 0 Z " fill="#EFEEEE" transform="translate(45,30)"/>
<path d="M0 0 C4.95 0 9.9 0 15 0 C15 4.95 15 9.9 15 15 C10.05 15 5.1 15 0 15 C0 10.05 0 5.1 0 0 Z " fill="#FFFFFF" transform="translate(30,30)"/>
<path d="M0 0 C4.95 0 9.9 0 15 0 C15 4.95 15 9.9 15 15 C10.05 15 5.1 15 0 15 C0 10.05 0 5.1 0 0 Z " fill="#EFEEEE" transform="translate(15,30)"/>
<path d="M0 0 C4.95 0 9.9 0 15 0 C15 4.95 15 9.9 15 15 C10.05 15 5.1 15 0 15 C0 10.05 0 5.1 0 0 Z " fill="#FFFFFF" transform="translate(0,30)"/>
<path d="M0 0 C4.95 0 9.9 0 15 0 C15 4.95 15 9.9 15 15 C10.05 15 5.1 15 0 15 C0 10.05 0 5.1 0 0 Z " fill="#EFEEEE" transform="translate(330,15)"/>
<path d="M0 0 C4.95 0 9.9 0 15 0 C15 4.95 15 9.9 15 15 C10.05 15 5.1 15 0 15 C0 10.05 0 5.1 0 0 Z " fill="#EFEEEE" transform="translate(300,15)"/>
<path d="M0 0 C4.95 0 9.9 0 15 0 C15 4.95 15 9.9 15 15 C10.05 15 5.1 15 0 15 C0 10.05 0 5.1 0 0 Z " fill="#EFEEEE" transform="translate(60,15)"/>
<path d="M0 0 C4.95 0 9.9 0 15 0 C15 4.95 15 9.9 15 15 C10.05 15 5.1 15 0 15 C0 10.05 0 5.1 0 0 Z " fill="#FFFFFF" transform="translate(45,15)"/>
<path d="M0 0 C4.95 0 9.9 0 15 0 C15 4.95 15 9.9 15 15 C10.05 15 5.1 15 0 15 C0 10.05 0 5.1 0 0 Z " fill="#EFEEEE" transform="translate(30,15)"/>
<path d="M0 0 C4.95 0 9.9 0 15 0 C15 4.95 15 9.9 15 15 C10.05 15 5.1 15 0 15 C0 10.05 0 5.1 0 0 Z " fill="#FFFFFF" transform="translate(15,15)"/>
<path d="M0 0 C4.95 0 9.9 0 15 0 C15 4.95 15 9.9 15 15 C10.05 15 5.1 15 0 15 C0 10.05 0 5.1 0 0 Z " fill="#EFEEEE" transform="translate(0,15)"/>
<path d="M0 0 C4.95 0 9.9 0 15 0 C15 4.95 15 9.9 15 15 C10.05 15 5.1 15 0 15 C0 10.05 0 5.1 0 0 Z " fill="#EFEEEE" transform="translate(345,0)"/>
<path d="M0 0 C4.95 0 9.9 0 15 0 C15 4.95 15 9.9 15 15 C10.05 15 5.1 15 0 15 C0 10.05 0 5.1 0 0 Z " fill="#EFEEEE" transform="translate(315,0)"/>
<path d="M0 0 C4.95 0 9.9 0 15 0 C15 4.95 15 9.9 15 15 C10.05 15 5.1 15 0 15 C0 10.05 0 5.1 0 0 Z " fill="#EFEEEE" transform="translate(285,0)"/>
<path d="M0 0 C4.95 0 9.9 0 15 0 C15 4.95 15 9.9 15 15 C10.05 15 5.1 15 0 15 C0 10.05 0 5.1 0 0 Z " fill="#EFEEEE" transform="translate(255,0)"/>
<path d="M0 0 C4.95 0 9.9 0 15 0 C15 4.95 15 9.9 15 15 C10.05 15 5.1 15 0 15 C0 10.05 0 5.1 0 0 Z " fill="#EFEEEE" transform="translate(75,0)"/>
<path d="M0 0 C4.95 0 9.9 0 15 0 C15 4.95 15 9.9 15 15 C10.05 15 5.1 15 0 15 C0 10.05 0 5.1 0 0 Z " fill="#FFFFFF" transform="translate(60,0)"/>
<path d="M0 0 C4.95 0 9.9 0 15 0 C15 4.95 15 9.9 15 15 C10.05 15 5.1 15 0 15 C0 10.05 0 5.1 0 0 Z " fill="#EFEEEE" transform="translate(45,0)"/>
<path d="M0 0 C4.95 0 9.9 0 15 0 C15 4.95 15 9.9 15 15 C10.05 15 5.1 15 0 15 C0 10.05 0 5.1 0 0 Z " fill="#FFFFFF" transform="translate(30,0)"/>
<path d="M0 0 C4.95 0 9.9 0 15 0 C15 4.95 15 9.9 15 15 C10.05 15 5.1 15 0 15 C0 10.05 0 5.1 0 0 Z " fill="#FFFFFF" transform="translate(0,0)"/>
<path d="M0 0 C4.95 0 9.9 0 15 0 C15 4.95 15 9.9 15 15 C9.26934436 15.78145304 9.26934436 15.78145304 6 15 C3.19542224 12.39939153 1.38642232 9.55576547 0 6 C0 4.02 0 2.04 0 0 Z " fill="#EFEEEE" transform="translate(330,75)"/>
<path d="M0 0 C4.95 0 9.9 0 15 0 C15 4.95 15 9.9 15 15 C8.68300122 15 6.71074262 14.36862173 1.79296875 10.93359375 C-0.41542504 8.55199261 -0.57770031 7.33226572 -0.5625 4.125 C-0.376875 2.76375 -0.19125 1.4025 0 0 Z " fill="#EFEEEE" transform="translate(270,15)"/>
<path d="M0 0 C6.31699878 0 8.28925738 0.63137827 13.20703125 4.06640625 C15.41542504 6.44800739 15.57770031 7.66773428 15.5625 10.875 C15.376875 12.23625 15.19125 13.5975 15 15 C10.05 15 5.1 15 0 15 C0 10.05 0 5.1 0 0 Z " fill="#EFEEEE" transform="translate(75,330)"/>
<path d="M0 0 C5.73065564 -0.78145304 5.73065564 -0.78145304 9 0 C11.80457776 2.60060847 13.61357768 5.44423453 15 9 C15 10.98 15 12.96 15 15 C10.05 15 5.1 15 0 15 C0 10.05 0 5.1 0 0 Z " fill="#EFEEEE" transform="translate(15,270)"/>
<path d="M0 0 C0 4.95 0 9.9 0 15 C-4.95 15 -9.9 15 -15 15 C-15 11.7 -15 8.4 -15 5 C-13.25447527 4.15733289 -11.5033792 3.32619962 -9.75 2.5 C-8.77546875 2.0359375 -7.8009375 1.571875 -6.796875 1.09375 C-4 0 -4 0 0 0 Z " fill="#EFEEEE" transform="translate(255,345)"/>
<path d="M0 0 C3.3 0 6.6 0 10 0 C10 4.95 10 9.9 10 15 C5.05 15 0.1 15 -5 15 C-4.01108138 9.06648826 -2.51383744 5.35204099 0 0 Z " fill="#EFEEEE" transform="translate(350,240)"/>
<path d="M0 0 C4.95 0 9.9 0 15 0 C14.01108138 5.93351174 12.51383744 9.64795901 10 15 C6.7 15 3.4 15 0 15 C0 10.05 0 5.1 0 0 Z " fill="#EFEEEE" transform="translate(0,105)"/>
<path d="M0 0 C4.95 0 9.9 0 15 0 C15 3.3 15 6.6 15 10 C13.25447527 10.84266711 11.5033792 11.67380038 9.75 12.5 C8.77546875 12.9640625 7.8009375 13.428125 6.796875 13.90625 C4 15 4 15 0 15 C0 10.05 0 5.1 0 0 Z " fill="#EFEEEE" transform="translate(105,0)"/>
<path d="M0 0 C4.95 0 9.9 0 15 0 C15 4.95 15 9.9 15 15 C9.49534781 13.89906956 9.00758283 13.40847015 5.8125 9.1875 C4.80123047 7.87845703 4.80123047 7.87845703 3.76953125 6.54296875 C2 4 2 4 0 0 Z " fill="#EFEEEE" transform="translate(315,60)"/>
<path d="M0 0 C4.95 0 9.9 0 15 0 C15 4.95 15 9.9 15 15 C14.34 15 13.68 15 13 15 C13 14.34 13 13.68 13 13 C12.43796875 12.73960938 11.8759375 12.47921875 11.296875 12.2109375 C8.75921059 10.8730532 6.54661082 9.34370548 4.25 7.625 C3.45078125 7.03976563 2.6515625 6.45453125 1.828125 5.8515625 C0 4 0 4 0 0 Z " fill="#EFEEEE" transform="translate(285,30)"/>
<path d="M0 0 C5.5375375 1.1075075 6.07142467 1.68320715 9.3125 5.9375 C10.00988281 6.83339844 10.70726562 7.72929687 11.42578125 8.65234375 C13 11 13 11 13 13 C13.66 13 14.32 13 15 13 C15 13.66 15 14.32 15 15 C10.05 15 5.1 15 0 15 C0 10.05 0 5.1 0 0 Z " fill="#EFEEEE" transform="translate(30,285)"/>
<path d="M0 0 C7.5 5 7.5 5 10.875 7.5 C11.65617187 8.0671875 12.43734375 8.634375 13.2421875 9.21875 C15 11 15 11 15 15 C10.05 15 5.1 15 0 15 C0 10.05 0 5.1 0 0 Z " fill="#EFEEEE" transform="translate(60,315)"/>
<path d="M0 0 C5.27002208 4.39168507 10.35302051 8.9426379 15 14 C15 14.33 15 14.66 15 15 C10.05 15 5.1 15 0 15 C0 10.05 0 5.1 0 0 Z " fill="#EFEEEE" transform="translate(45,300)"/>
<path d="M0 0 C4.95 0 9.9 0 15 0 C15 4.95 15 9.9 15 15 C9.72997792 10.60831493 4.64697949 6.0573621 0 1 C0 0.67 0 0.34 0 0 Z " fill="#EFEEEE" transform="translate(300,45)"/>
<path d="M0 0 C1.93786085 0.47770523 3.87527674 0.95721571 5.8125 1.4375 C7.43091797 1.83775391 7.43091797 1.83775391 9.08203125 2.24609375 C11.0740843 2.76077412 13.04811524 3.34937175 15 4 C15 5.98 15 7.96 15 10 C10.05 10 5.1 10 0 10 C0 6.7 0 3.4 0 0 Z " fill="#EFEEEE" transform="translate(120,350)"/>
<path d="M0 0 C1.98 0 3.96 0 6 0 C6.6700834 2.12392506 7.33596797 4.24917524 8 6.375 C8.37125 7.55835938 8.7425 8.74171875 9.125 9.9609375 C10 13 10 13 10 15 C6.7 15 3.4 15 0 15 C0 10.05 0 5.1 0 0 Z " fill="#EFEEEE" transform="translate(0,225)"/>
<path d="M0 0 C3.3 0 6.6 0 10 0 C10 4.95 10 9.9 10 15 C8.02 15 6.04 15 4 15 C3.3299166 12.87607494 2.66403203 10.75082476 2 8.625 C1.62875 7.44164063 1.2575 6.25828125 0.875 5.0390625 C0 2 0 2 0 0 Z " fill="#EFEEEE" transform="translate(350,120)"/>
<path d="M0 0 C4.95 0 9.9 0 15 0 C15 3.3 15 6.6 15 10 C13.06213915 9.52229477 11.12472326 9.04278429 9.1875 8.5625 C8.10855469 8.29566406 7.02960938 8.02882813 5.91796875 7.75390625 C3.9259157 7.23922588 1.95188476 6.65062825 0 6 C0 4.02 0 2.04 0 0 Z " fill="#EFEEEE" transform="translate(225,0)"/>
<path d="M0 0 C-3.96 1.98 -3.96 1.98 -8 4 C-7.16597656 3.9278125 -6.33195313 3.855625 -5.47265625 3.78125 C13.7979798 2.19191919 13.7979798 2.19191919 22 6 C23.5635348 9.12706959 23.39958487 12.57982443 23 16 C22.34 16.99 21.68 17.98 21 19 C21.01160156 18.30132812 21.02320313 17.60265625 21.03515625 16.8828125 C21.04417969 15.97273438 21.05320312 15.06265625 21.0625 14.125 C21.07410156 13.22007812 21.08570313 12.31515625 21.09765625 11.3828125 C21.16249257 8.9831415 21.16249257 8.9831415 20 7 C16.13125846 5.71041949 12.46762806 5.85207829 8.4375 5.875 C7.63135254 5.87693359 6.82520508 5.87886719 5.99462891 5.88085938 C0.27256705 5.9222819 -5.32038552 6.26714652 -11 7 C-10.62054259 4.56429366 -10.38466849 3.32844771 -8.4765625 1.69921875 C-3.33333333 -1.11111111 -3.33333333 -1.11111111 0 0 Z " fill="#F99C0F" transform="translate(260,247)"/>
<path d="M0 0 C0.33 0 0.66 0 1 0 C1 4.95 1 9.9 1 15 C-1.97 15 -4.94 15 -8 15 C-6.85657478 12.68628057 -5.71038936 10.37400323 -4.5625 8.0625 C-4.23701172 7.40314453 -3.91152344 6.74378906 -3.57617188 6.06445312 C-1.11328125 1.11328125 -1.11328125 1.11328125 0 0 Z " fill="#EFEEEE" transform="translate(344,255)"/>
<path d="M0 0 C2.97 0 5.94 0 9 0 C7.88222229 2.31625061 6.75625908 4.62784605 5.625 6.9375 C5.14933594 7.9265332 5.14933594 7.9265332 4.6640625 8.93554688 C2.2265625 13.88671875 2.2265625 13.88671875 0 15 C0 10.05 0 5.1 0 0 Z " fill="#EFEEEE" transform="translate(15,90)"/>
<path d="M0 0 C4.95 0 9.9 0 15 0 C11.98509443 3.01490557 9.61183151 4.34911378 5.8125 6.1875 C4.72582031 6.71730469 3.63914062 7.24710938 2.51953125 7.79296875 C1.68808594 8.19128906 0.85664062 8.58960938 0 9 C0 6.03 0 3.06 0 0 Z " fill="#EFEEEE" transform="translate(90,15)"/>
<path d="M0 0 C0 2.97 0 5.94 0 9 C-4.95 9 -9.9 9 -15 9 C-12.15704208 6.15704208 -9.87975985 4.68509596 -6.375 2.8125 C-5.39273437 2.28269531 -4.41046875 1.75289063 -3.3984375 1.20703125 C-1 0 -1 0 0 0 Z " fill="#EFEEEE" transform="translate(270,336)"/>
<path d="M0 0 C4.95 0 9.9 0 15 0 C14.67 0.99 14.34 1.98 14 3 C10.83984375 3.94921875 10.83984375 3.94921875 6.9375 4.6875 C5.64714844 4.93886719 4.35679687 5.19023438 3.02734375 5.44921875 C2.02832031 5.63097656 1.02929688 5.81273437 0 6 C0 4.02 0 2.04 0 0 Z " fill="#EFEEEE" transform="translate(135,0)"/>
<path d="M0 0 C0.66 0 1.32 0 2 0 C2 4.95 2 9.9 2 15 C0.35 15 -1.3 15 -3 15 C-2.5547115 9.72684667 -1.91626837 4.98229776 0 0 Z " fill="#EFEEEE" transform="translate(358,210)"/>
<path d="M0 0 C0 1.65 0 3.3 0 5 C-4.95 5 -9.9 5 -15 5 C-14.67 4.01 -14.34 3.02 -14 2 C-12.4176994 1.66179834 -10.83410625 1.32964061 -9.25 1 C-8.36828125 0.814375 -7.4865625 0.62875 -6.578125 0.4375 C-4 0 -4 0 0 0 Z " fill="#EFEEEE" transform="translate(225,355)"/>
<path d="M0 0 C1.65 0 3.3 0 5 0 C4.5547115 5.27315333 3.91626837 10.01770224 2 15 C1.34 15 0.68 15 0 15 C0 10.05 0 5.1 0 0 Z " fill="#EFEEEE" transform="translate(0,135)"/>
<path d="M0 0 C1.25955231 3.77865693 0.48087189 5.03411786 -0.9375 8.6875 C-1.31777344 9.68136719 -1.69804687 10.67523438 -2.08984375 11.69921875 C-2.39019531 12.45847656 -2.69054687 13.21773438 -3 14 C-2.67 14.33 -2.34 14.66 -2 15 C-1.01 14.34 -0.02 13.68 1 13 C-0.15173355 15.46800047 -1.04783565 17.04783565 -3 19 C-3.99 19 -4.98 19 -6 19 C-5.39124245 14.39583374 -4.15277044 10.43516676 -2.4375 6.125 C-1.75494141 4.39636719 -1.75494141 4.39636719 -1.05859375 2.6328125 C-0.70925781 1.76398438 -0.35992187 0.89515625 0 0 Z " fill="#F99C0F" transform="translate(280,267)"/>
</svg>
